<svg xmlns="http://www.w3.org/2000/svg" width="15.942" height="15.011" viewBox="0 0 31.942 28.011">
  <g id="crown" transform="translate(0.25 0.25)">
    <path id="Path_6850" data-name="Path 6850"
      d="M29.5,5.9h-.061L29.5,19.528v.123a1.992,1.992,0,0,1-1.965,1.965H3.958a1.874,1.874,0,0,1-1.4-.583,1.914,1.914,0,0,1-.568-1.382v-.123L2.054,5.9H1.992A1.9,1.9,0,0,1,.6,5.327a1.9,1.9,0,0,1-.568-1.4A1.9,1.9,0,0,1,.6,2.533a1.881,1.881,0,0,1,1.382-.568,1.932,1.932,0,0,1,1.4.568,1.874,1.874,0,0,1,.583,1.4,1.85,1.85,0,0,1-.829,1.6l6.724,9.518,5.1-11.3a1.824,1.824,0,0,1-.844-.706,1.919,1.919,0,0,1-.322-1.075,1.9,1.9,0,0,1,.568-1.4A1.881,1.881,0,0,1,15.733,0a1.932,1.932,0,0,1,1.4.568,1.874,1.874,0,0,1,.583,1.4,1.919,1.919,0,0,1-.322,1.075,1.824,1.824,0,0,1-.844.706l5.1,11.3,6.724-9.518a1.85,1.85,0,0,1-.829-1.6,1.9,1.9,0,0,1,.568-1.4,1.881,1.881,0,0,1,1.382-.568,1.932,1.932,0,0,1,1.4.568,1.874,1.874,0,0,1,.583,1.4,1.874,1.874,0,0,1-.583,1.4A1.914,1.914,0,0,1,29.5,5.9ZM1.992,23.581H29.5a1.914,1.914,0,0,1,1.382.568,1.856,1.856,0,0,1,.583,1.382,1.992,1.992,0,0,1-1.965,1.98H1.992a1.888,1.888,0,0,1-1.382-.583,1.906,1.906,0,0,1-.583-1.4A1.881,1.881,0,0,1,.6,24.149a1.9,1.9,0,0,1,1.4-.568Z"
      transform="translate(-0.027 0)" fill="#ee8c40" stroke="#9a4e1d" stroke-width="0.5" />
  </g>
</svg>